<?xml version="1.0" standalone="no"?>
<!DOCTYPE svg PUBLIC "-//W3C//DTD SVG 20010904//EN"
 "http://www.w3.org/TR/2001/REC-SVG-20010904/DTD/svg10.dtd">
<svg version="1.0" xmlns="http://www.w3.org/2000/svg"
 width="225.000000pt" height="225.000000pt" viewBox="0 0 225.000000 225.000000"
 preserveAspectRatio="xMidYMid meet">

<g transform="translate(0.000000,225.000000) scale(0.100000,-0.100000)"
fill="#000000" stroke="none">
<path d="M975 2239 c-231 -29 -474 -150 -644 -320 -437 -437 -437 -1151 0
-1588 337 -337 855 -424 1285 -216 421 204 676 661 625 1124 -68 635 -631
1079 -1266 1000z m650 -1119 l0 -445 -479 -3 c-377 -2 -481 0 -488 10 -9 15
-11 848 -2 872 6 15 55 16 488 14 l481 -3 0 -445z"/>
<path d="M710 1115 l0 -395 433 2 432 3 3 393 2 392 -435 0 -435 0 0 -395z
m457 123 c99 -57 123 -75 121 -91 -3 -21 -225 -157 -258 -157 -27 0 -30 18
-30 164 0 128 6 156 33 156 6 0 66 -32 134 -72z m-330 -358 c5 -20 14 -20 343
-20 288 0 339 -2 350 -15 10 -12 10 -18 0 -30 -11 -13 -62 -15 -350 -15 -291
0 -339 -2 -344 -15 -8 -22 -35 -18 -62 8 -26 25 -31 52 -11 64 8 4 16 16 20
26 9 24 48 22 54 -3z"/>
</g>
</svg>
